<?xml version="1.0" encoding="UTF-8" standalone="no" ?>
<!DOCTYPE svg PUBLIC "-//W3C//DTD SVG 1.1//EN" "http://www.w3.org/Graphics/SVG/1.1/DTD/svg11.dtd">
<svg xmlns="http://www.w3.org/2000/svg" xmlns:xlink="http://www.w3.org/1999/xlink" version="1.1" width="1080" height="1080" viewBox="0 0 1080 1080" xml:space="preserve">
<desc>Created with Fabric.js 5.2.4</desc>
<defs>
</defs>
<g transform="matrix(1 0 0 1 540 540)" id="a1e9532e-e8b9-4b89-94ef-9198d89e7603"  >
<rect style="stroke: none; stroke-width: 1; stroke-dasharray: none; stroke-linecap: butt; stroke-dashoffset: 0; stroke-linejoin: miter; stroke-miterlimit: 4; fill: rgb(255,255,255); fill-rule: nonzero; opacity: 1; visibility: hidden;" vector-effect="non-scaling-stroke"  x="-540" y="-540" rx="0" ry="0" width="1080" height="1080" />
</g>
<g transform="matrix(1 0 0 1 540 540)" id="c286ded2-8618-4707-a67f-51300bf2f445"  >
</g>
<g transform="matrix(45 0 0 45 540 540)"  >
<path style="stroke: none; stroke-width: 1; stroke-dasharray: none; stroke-linecap: butt; stroke-dashoffset: 0; stroke-linejoin: miter; stroke-miterlimit: 4; fill: rgb(0,0,0); fill-rule: nonzero; opacity: 1;"  transform=" translate(-12, -12)" d="M 20.5 2 L 3.5 2 C 2.6715728752538097 2 2 2.6715728752538097 2 3.5 L 2 20.5 C 2 21.32842712474619 2.6715728752538097 22 3.5 22 L 20.5 22 C 21.32842712474619 22 22 21.32842712474619 22 20.5 L 22 3.5 C 22 2.6715728752538097 21.32842712474619 2 20.5 2 z M 8 19 L 5 19 L 5 10 L 8 10 z M 6.5 8.25 C 5.540489625259173 8.22257414132625 4.782158479132226 7.42734714527828 4.800313164566846 6.467616587071424 C 4.818467850001466 5.507886028864569 5.606331446008968 4.741907532746163 6.5661926079872055 4.750789350412742 C 7.526053769965443 4.75967116807932 8.299608120884074 5.540097826135375 8.3 6.5 C 8.283558217324874 7.479168274129732 7.479242926369243 8.261141473669928 6.500000000000001 8.25 z M 19 19 L 16 19 L 16 14.26 C 16 12.84 15.4 12.33 14.620000000000001 12.33 C 14.158111758999551 12.360750885548326 13.727516055220612 12.574285587511712 13.423485186872375 12.923358065985614 C 13.119454318524136 13.272430544459516 12.967052609760824 13.728263242081676 13 14.189999999999998 C 12.995036507174923 14.236534686696892 12.995036507174923 14.283465313303108 13 14.33 L 13 19 L 10 19 L 10 10 L 12.9 10 L 12.9 11.3 C 13.494868270846881 10.395076001107908 14.517635317271559 9.864752347406226 15.600000000000001 9.9 C 17.150000000000002 9.9 18.96 10.76 18.96 13.56 z" stroke-linecap="round" />
</g>
</svg>